<svg width="107" height="38" viewBox="0 0 107 38" fill="none" xmlns="http://www.w3.org/2000/svg">
<rect width="107" height="38" rx="19" fill="#FAFAFA"/>
<path d="M75.249 8.0746C74.1141 8.12815 73.339 8.30927 72.6615 8.57551C71.9603 8.84879 71.3659 9.21551 70.7745 9.80901C70.1832 10.4025 69.819 10.9973 69.5476 11.6996C69.285 12.3786 69.1071 13.1543 69.057 14.2899C69.0068 15.4255 68.9958 15.7905 69.0013 18.6871C69.0068 21.5838 69.0196 21.9469 69.0747 23.0848C69.1289 24.2195 69.3094 24.9943 69.5756 25.6721C69.8493 26.3733 70.2156 26.9675 70.8093 27.559C71.403 28.1506 71.9974 28.5139 72.7014 28.7857C73.3798 29.0479 74.1557 29.2267 75.2911 29.2764C76.4264 29.3261 76.7919 29.3376 79.6877 29.3321C82.5835 29.3265 82.9481 29.3137 84.0858 29.2597C85.2235 29.2058 85.9943 29.024 86.6723 28.759C87.3735 28.4847 87.9681 28.119 88.5593 27.5251C89.1504 26.9312 89.5144 26.336 89.7855 25.6333C90.0483 24.9549 90.2269 24.179 90.2762 23.0445C90.3259 21.9059 90.3376 21.5424 90.3321 18.6462C90.3265 15.7499 90.3135 15.3868 90.2595 14.2493C90.2056 13.1118 90.0249 12.3394 89.7588 11.6612C89.4847 10.9599 89.1188 10.3662 88.5253 9.77423C87.9318 9.18223 87.3362 8.8185 86.6337 8.54799C85.9549 8.28537 85.1794 8.10639 84.044 8.05732C82.9086 8.00825 82.5432 7.99567 79.6463 8.00121C76.7494 8.00676 76.3868 8.01913 75.249 8.0746ZM75.3736 27.3574C74.3336 27.3122 73.7689 27.1394 73.3926 26.9948C72.8942 26.8028 72.5393 26.5707 72.1642 26.1992C71.7892 25.8278 71.5588 25.4716 71.3642 24.9743C71.2181 24.598 71.0421 24.0339 70.9934 22.9939C70.9405 21.8698 70.9294 21.5324 70.9232 18.6846C70.917 15.8368 70.9279 15.4997 70.9772 14.3752C71.0216 13.3361 71.1955 12.7707 71.3399 12.3946C71.5319 11.8956 71.7631 11.5413 72.1354 11.1665C72.5077 10.7916 72.8629 10.5608 73.3606 10.3662C73.7365 10.2195 74.3006 10.045 75.3401 9.99546C76.4651 9.94213 76.8021 9.93146 79.6495 9.92527C82.4969 9.91909 82.8348 9.92975 83.9602 9.97925C84.9993 10.0245 85.5649 10.1966 85.9406 10.3419C86.4391 10.5339 86.7939 10.7645 87.1687 11.1374C87.5436 11.5103 87.7746 11.8643 87.9692 12.363C88.1162 12.7379 88.2907 13.3017 88.3397 14.3419C88.3933 15.4668 88.4054 15.8041 88.4106 18.6513C88.4157 21.4984 88.4057 21.8366 88.3564 22.9606C88.3109 24.0006 88.1386 24.5655 87.9937 24.9423C87.8017 25.4404 87.5702 25.7956 87.1977 26.1702C86.8253 26.5448 86.4705 26.7757 85.9726 26.9702C85.5971 27.1168 85.0324 27.2917 83.9937 27.3412C82.8687 27.3941 82.5317 27.4052 79.6832 27.4114C76.8348 27.4176 76.4988 27.4061 75.3738 27.3574M84.0694 12.9657C84.0698 13.2189 84.1453 13.4663 84.2863 13.6765C84.4274 13.8868 84.6276 14.0505 84.8616 14.147C85.0957 14.2435 85.3531 14.2684 85.6014 14.2185C85.8496 14.1687 86.0775 14.0464 86.2562 13.867C86.4349 13.6877 86.5564 13.4593 86.6053 13.2109C86.6542 12.9625 86.6284 12.7052 86.531 12.4715C86.4337 12.2378 86.2692 12.0381 86.0585 11.8979C85.8477 11.7577 85.6 11.6831 85.3468 11.6836C85.0074 11.6843 84.6822 11.8197 84.4426 12.0601C84.2031 12.3006 84.0688 12.6263 84.0694 12.9657ZM74.1898 18.6773C74.1958 21.7024 76.6526 24.1491 79.677 24.1433C82.7015 24.1376 85.1499 21.681 85.1442 18.656C85.1384 15.6309 82.681 13.1835 79.6561 13.1895C76.6312 13.1955 74.1841 15.6527 74.1898 18.6773ZM76.1111 18.6735C76.1097 17.9702 76.3169 17.2824 76.7065 16.6969C77.096 16.1114 77.6504 15.6546 78.2996 15.3841C78.9488 15.1137 79.6636 15.0419 80.3536 15.1777C81.0436 15.3136 81.6778 15.651 82.176 16.1472C82.6743 16.6435 83.0142 17.2764 83.1527 17.9659C83.2913 18.6553 83.2223 19.3704 82.9545 20.0206C82.6866 20.6708 82.232 21.2271 81.6481 21.6189C81.0641 22.0108 80.3771 22.2207 79.6738 22.2221C79.2069 22.223 78.7443 22.132 78.3125 21.9542C77.8808 21.7764 77.4882 21.5153 77.1574 21.1857C76.8266 20.8562 76.5639 20.4647 76.3844 20.0337C76.2048 19.6026 76.112 19.1404 76.1111 18.6735Z" fill="#148387"/>
<path d="M18.944 24.16C18.0907 24.16 17.4453 23.92 17.008 23.44C16.5707 22.9493 16.352 22.2507 16.352 21.344V20.704H18.016V21.472C18.016 22.1973 18.32 22.56 18.928 22.56C19.2267 22.56 19.4507 22.4747 19.6 22.304C19.76 22.1227 19.84 21.8347 19.84 21.44C19.84 20.9707 19.7333 20.56 19.52 20.208C19.3067 19.8453 18.912 19.4133 18.336 18.912C17.6107 18.272 17.104 17.696 16.816 17.184C16.528 16.6613 16.384 16.0747 16.384 15.424C16.384 14.5387 16.608 13.856 17.056 13.376C17.504 12.8853 18.1547 12.64 19.008 12.64C19.8507 12.64 20.4853 12.8853 20.912 13.376C21.3493 13.856 21.568 14.5493 21.568 15.456V15.92H19.904V15.344C19.904 14.96 19.8293 14.6827 19.68 14.512C19.5307 14.3307 19.312 14.24 19.024 14.24C18.4373 14.24 18.144 14.5973 18.144 15.312C18.144 15.7173 18.2507 16.096 18.464 16.448C18.688 16.8 19.088 17.2267 19.664 17.728C20.4 18.368 20.9067 18.9493 21.184 19.472C21.4613 19.9947 21.6 20.608 21.6 21.312C21.6 22.2293 21.3707 22.9333 20.912 23.424C20.464 23.9147 19.808 24.16 18.944 24.16ZM22.6091 12.8H24.3691V24H22.6091V12.8ZM28.1833 24.16C27.3299 24.16 26.6793 23.92 26.2313 23.44C25.7833 22.9493 25.5592 22.2507 25.5592 21.344V15.456C25.5592 14.5493 25.7833 13.856 26.2313 13.376C26.6793 12.8853 27.3299 12.64 28.1833 12.64C29.0366 12.64 29.6873 12.8853 30.1353 13.376C30.5833 13.856 30.8073 14.5493 30.8073 15.456V16.416H29.1432V15.344C29.1432 14.608 28.8393 14.24 28.2313 14.24C27.6233 14.24 27.3193 14.608 27.3193 15.344V21.472C27.3193 22.1973 27.6233 22.56 28.2313 22.56C28.8393 22.56 29.1432 22.1973 29.1432 21.472V19.28H28.2633V17.68H30.8073V21.344C30.8073 22.2507 30.5833 22.9493 30.1353 23.44C29.6873 23.92 29.0366 24.16 28.1833 24.16ZM33.2973 12.8H35.6813L37.5053 24H35.7453L35.4253 21.776V21.808H33.4253L33.1053 24H31.4733L33.2973 12.8ZM35.2173 20.288L34.4333 14.752H34.4013L33.6332 20.288H35.2173ZM37.7906 17.6H41.3106V19.2H37.7906V17.6ZM42.3591 12.8H44.5671L46.2791 19.504H46.3111V12.8H47.8791V24H46.0711L43.9591 15.824H43.9271V24H42.3591V12.8ZM51.7313 24.16C50.8673 24.16 50.2059 23.9147 49.7473 23.424C49.2886 22.9333 49.0592 22.24 49.0592 21.344V15.456C49.0592 14.56 49.2886 13.8667 49.7473 13.376C50.2059 12.8853 50.8673 12.64 51.7313 12.64C52.5953 12.64 53.2566 12.8853 53.7153 13.376C54.1739 13.8667 54.4033 14.56 54.4033 15.456V21.344C54.4033 22.24 54.1739 22.9333 53.7153 23.424C53.2566 23.9147 52.5953 24.16 51.7313 24.16ZM51.7313 22.56C52.3393 22.56 52.6432 22.192 52.6432 21.456V15.344C52.6432 14.608 52.3393 14.24 51.7313 14.24C51.1233 14.24 50.8193 14.608 50.8193 15.344V21.456C50.8193 22.192 51.1233 22.56 51.7313 22.56ZM57.8815 24.16C57.0282 24.16 56.3828 23.92 55.9455 23.44C55.5082 22.9493 55.2895 22.2507 55.2895 21.344V20.704H56.9535V21.472C56.9535 22.1973 57.2575 22.56 57.8655 22.56C58.1642 22.56 58.3882 22.4747 58.5375 22.304C58.6975 22.1227 58.7775 21.8347 58.7775 21.44C58.7775 20.9707 58.6708 20.56 58.4575 20.208C58.2442 19.8453 57.8495 19.4133 57.2735 18.912C56.5482 18.272 56.0415 17.696 55.7535 17.184C55.4655 16.6613 55.3215 16.0747 55.3215 15.424C55.3215 14.5387 55.5455 13.856 55.9935 13.376C56.4415 12.8853 57.0922 12.64 57.9455 12.64C58.7882 12.64 59.4228 12.8853 59.8495 13.376C60.2868 13.856 60.5055 14.5493 60.5055 15.456V15.92H58.8415V15.344C58.8415 14.96 58.7668 14.6827 58.6175 14.512C58.4682 14.3307 58.2495 14.24 57.9615 14.24C57.3748 14.24 57.0815 14.5973 57.0815 15.312C57.0815 15.7173 57.1882 16.096 57.4015 16.448C57.6255 16.8 58.0255 17.2267 58.6015 17.728C59.3375 18.368 59.8442 18.9493 60.1215 19.472C60.3988 19.9947 60.5375 20.608 60.5375 21.312C60.5375 22.2293 60.3082 22.9333 59.8495 23.424C59.4015 23.9147 58.7455 24.16 57.8815 24.16Z" fill="#148387"/>
</svg>
